<svg width="20" height="18" viewBox="0 0 20 18" fill="none" xmlns="http://www.w3.org/2000/svg">
    <path d="M0.922363 1.74824C0.966113 1.26699 1.22861 1.00449 1.70986 0.960743H3.21924C3.96299 1.00449 4.50986 1.35449 4.85986 2.01074H18.3458C18.7833 2.03262 19.1333 2.20762 19.3958 2.53574C19.6364 2.86387 19.713 3.23574 19.6255 3.65137L18.2802 8.67168C18.1271 9.19668 17.8427 9.6123 17.4271 9.91856C17.0114 10.2467 16.5302 10.4107 15.9833 10.4107H6.5333L6.69736 11.3623C6.80674 11.7561 7.06924 11.9639 7.48486 11.9857H16.9349C17.4161 12.0295 17.6786 12.292 17.7224 12.7732C17.6786 13.2545 17.4161 13.517 16.9349 13.5607H7.48486C6.89424 13.5607 6.39111 13.3748 5.97549 13.0029C5.53799 12.6529 5.26455 12.2045 5.15518 11.6576L3.44893 2.76543C3.42705 2.61231 3.35049 2.53574 3.21924 2.53574H1.70986C1.22861 2.49199 0.966113 2.22949 0.922363 1.74824ZM5.12236 16.1857C5.14424 15.5951 5.40674 15.1357 5.90986 14.8076C6.43486 14.5451 6.95986 14.5451 7.48486 14.8076C7.98799 15.1357 8.25049 15.5951 8.27236 16.1857C8.25049 16.7764 7.98799 17.2357 7.48486 17.5639C6.95986 17.8264 6.43486 17.8264 5.90986 17.5639C5.40674 17.2357 5.14424 16.7764 5.12236 16.1857ZM16.1474 14.6107C16.738 14.6326 17.1974 14.8951 17.5255 15.3982C17.788 15.9232 17.788 16.4482 17.5255 16.9732C17.1974 17.4764 16.738 17.7389 16.1474 17.7607C15.5567 17.7389 15.0974 17.4764 14.7692 16.9732C14.5067 16.4482 14.5067 15.9232 14.7692 15.3982C15.0974 14.8951 15.5567 14.6326 16.1474 14.6107Z" fill="black"/>
</svg>
