<svg width="18" height="20" viewBox="0 0 18 20" fill="none" xmlns="http://www.w3.org/2000/svg">
    <path d="M17.25 3.49988H13.5V2.74988C13.5 2.15314 13.2629 1.58084 12.841 1.15889C12.419 0.736931 11.8467 0.499878 11.25 0.499878H6.75C6.15326 0.499878 5.58097 0.736931 5.15901 1.15889C4.73705 1.58084 4.5 2.15314 4.5 2.74988V3.49988H0.75C0.551088 3.49988 0.360322 3.5789 0.21967 3.71955C0.0790178 3.8602 0 4.05097 0 4.24988C0 4.44879 0.0790178 4.63956 0.21967 4.78021C0.360322 4.92086 0.551088 4.99988 0.75 4.99988H1.5V18.4999C1.5 18.8977 1.65804 19.2792 1.93934 19.5605C2.22064 19.8418 2.60218 19.9999 3 19.9999H15C15.3978 19.9999 15.7794 19.8418 16.0607 19.5605C16.342 19.2792 16.5 18.8977 16.5 18.4999V4.99988H17.25C17.4489 4.99988 17.6397 4.92086 17.7803 4.78021C17.921 4.63956 18 4.44879 18 4.24988C18 4.05097 17.921 3.8602 17.7803 3.71955C17.6397 3.5789 17.4489 3.49988 17.25 3.49988ZM7.5 14.7499C7.5 14.9488 7.42098 15.1396 7.28033 15.2802C7.13968 15.4209 6.94891 15.4999 6.75 15.4999C6.55109 15.4999 6.36032 15.4209 6.21967 15.2802C6.07902 15.1396 6 14.9488 6 14.7499V8.74988C6 8.55097 6.07902 8.3602 6.21967 8.21955C6.36032 8.0789 6.55109 7.99988 6.75 7.99988C6.94891 7.99988 7.13968 8.0789 7.28033 8.21955C7.42098 8.3602 7.5 8.55097 7.5 8.74988V14.7499ZM12 14.7499C12 14.9488 11.921 15.1396 11.7803 15.2802C11.6397 15.4209 11.4489 15.4999 11.25 15.4999C11.0511 15.4999 10.8603 15.4209 10.7197 15.2802C10.579 15.1396 10.5 14.9488 10.5 14.7499V8.74988C10.5 8.55097 10.579 8.3602 10.7197 8.21955C10.8603 8.0789 11.0511 7.99988 11.25 7.99988C11.4489 7.99988 11.6397 8.0789 11.7803 8.21955C11.921 8.3602 12 8.55097 12 8.74988V14.7499ZM12 3.49988H6V2.74988C6 2.55097 6.07902 2.3602 6.21967 2.21955C6.36032 2.0789 6.55109 1.99988 6.75 1.99988H11.25C11.4489 1.99988 11.6397 2.0789 11.7803 2.21955C11.921 2.3602 12 2.55097 12 2.74988V3.49988Z" fill="#FF3333"/>
</svg>
